<svg width="70" height="39" viewBox="0 0 70 39" fill="none" xmlns="http://www.w3.org/2000/svg">
<g clip-path="url(#clip0_1007_238)" filter="url(#filter0_d_1007_238)">
<path d="M14.4278 11.0278C15.1014 10.7834 15.8198 10.6531 16.5651 10.6531C19.8279 10.6531 22.5519 13.1754 23.1745 16.5287L27.7993 15.5022C26.7397 9.8058 22.1119 5.51721 16.5651 5.51721C15.2929 5.51721 14.0746 5.74207 12.9312 6.1592L14.4278 11.0278Z" fill="#FBFBFB" fill-opacity="0.37"/>
<path d="M8.97098 27.3414L12.0991 23.4927C10.7042 22.1469 9.82409 20.1818 9.82409 17.9919C9.82409 15.8052 10.7042 13.8402 12.0991 12.4975L8.97098 8.64563C6.60021 10.9333 5.10352 14.2736 5.10352 17.9919C5.10352 21.7134 6.60021 25.0537 8.97098 27.3414" fill="white" fill-opacity="0.75"/>
<path d="M23.1745 19.4648C22.5489 22.8149 19.8279 25.3339 16.5681 25.3339C15.8198 25.3339 15.0984 25.2036 14.4278 24.9559L12.9312 29.8311C14.0746 30.245 15.2959 30.4698 16.5681 30.4698C22.1089 30.4698 26.7337 26.1878 27.7993 20.4979L23.1745 19.4648Z" fill="white" fill-opacity="0.4"/>
<path d="M31.8434 23.6523C31.6908 23.3851 31.4872 22.9582 31.3615 22.6421C30.6281 20.7911 30.5952 18.8749 31.2118 17.037C31.8913 15.0198 33.1904 13.4784 34.8697 12.6897C36.9801 11.7023 39.3119 11.8946 41.3355 13.2014C42.6196 14.003 43.5296 15.2414 44.2211 16.9946C44.3079 17.2195 44.3857 17.4573 44.4636 17.6627L31.8434 23.6523ZM36.0581 15.665C34.5584 16.3657 33.7861 17.8973 33.9478 19.6896L40.2938 16.7143C39.2012 15.3196 37.7823 14.8568 36.0581 15.665V15.665ZM41.084 22.137C41.081 22.137 41.081 22.1403 41.081 22.1403L40.9493 22.0425C40.5692 22.7105 39.9795 23.2548 39.2341 23.6067C37.8152 24.278 36.5011 24.1053 35.5552 23.2026L35.4684 23.346C35.4684 23.346 35.4684 23.3427 35.4654 23.3427L33.855 25.9661C34.2561 26.2692 34.6842 26.5233 35.1332 26.7286C36.9112 27.5336 38.7312 27.4945 40.5243 26.6472C41.8204 26.0345 42.8382 25.1025 43.5326 23.9196L41.084 22.137ZM48.8728 8.8313V23.4112L50.9562 24.3302L49.7738 27.3348L47.4749 26.292C46.96 26.0476 46.6068 25.6761 46.3434 25.2557C46.089 24.8288 45.9004 24.2389 45.9004 23.4503V8.8313H48.8728ZM54.2669 19.6994C54.2669 18.4578 54.7728 17.3433 55.569 16.5872L53.4318 13.9932C51.983 15.388 51.07 17.4248 51.07 19.6929C51.067 21.9643 51.98 24.0043 53.4258 25.3991L55.5601 22.805C54.7668 22.0457 54.2669 20.9378 54.2669 19.6994V19.6994ZM58.0625 23.8348C57.6435 23.8348 57.2364 23.7566 56.8592 23.6197L55.8385 26.9209C56.5359 27.1751 57.2813 27.3152 58.0596 27.3152C61.4421 27.3185 64.2648 24.7049 64.9204 21.2343L61.7833 20.5369C61.4271 22.4238 59.8975 23.8381 58.0625 23.8348V23.8348ZM58.0715 12.0836C57.2962 12.0836 56.5509 12.2205 55.8534 12.4714L56.8652 15.7758C57.2453 15.6389 57.6495 15.564 58.0685 15.564C59.9065 15.5672 61.4391 16.9881 61.7863 18.8782L64.9234 18.1873C64.2798 14.7102 61.457 12.0868 58.0715 12.0836V12.0836Z" fill="white"/>
</g>
<defs>
<filter id="filter0_d_1007_238" x="-4" y="0" width="78" height="44" filterUnits="userSpaceOnUse" color-interpolation-filters="sRGB">
<feFlood flood-opacity="0" result="BackgroundImageFix"/>
<feColorMatrix in="SourceAlpha" type="matrix" values="0 0 0 0 0 0 0 0 0 0 0 0 0 0 0 0 0 0 127 0" result="hardAlpha"/>
<feOffset dy="4"/>
<feGaussianBlur stdDeviation="2"/>
<feComposite in2="hardAlpha" operator="out"/>
<feColorMatrix type="matrix" values="0 0 0 0 0 0 0 0 0 0 0 0 0 0 0 0 0 0 0.25 0"/>
<feBlend mode="normal" in2="BackgroundImageFix" result="effect1_dropShadow_1007_238"/>
<feBlend mode="normal" in="SourceGraphic" in2="effect1_dropShadow_1007_238" result="shape"/>
</filter>
<clipPath id="clip0_1007_238">
<rect width="70" height="36" fill="white"/>
</clipPath>
</defs>
</svg>
