<svg width="83" height="46" viewBox="0 0 83 46" fill="none" xmlns="http://www.w3.org/2000/svg">
<g clip-path="url(#clip0_1007_280)">
<path d="M22.1177 16.3485C22.4774 16.033 22.9407 14.596 22.4114 13.9977C22.2438 13.8083 21.9634 13.7533 21.5723 13.8376C21.2096 13.9156 21.0009 14.0726 20.8592 14.3184C20.6314 14.7136 20.4224 15.9058 20.7753 16.3487C21.119 16.7798 21.8888 16.5491 22.1177 16.3485V16.3485ZM16.9995 13.9977C16.7418 16.1272 16.4515 18.2151 16.1604 20.302C14.2915 20.3271 12.3833 20.4194 10.5806 20.2485C10.9211 18.2068 11.1653 16.0423 11.5036 13.9977H9.48988C8.76905 19.2059 8.11323 24.4972 7.30835 29.5983H9.36412C9.68649 26.9818 9.98818 24.3383 10.4129 21.8514C12.1656 21.7965 14.2664 21.7006 15.9507 21.905C15.6034 24.4904 15.1838 26.983 14.86 29.5983H16.9157C17.5764 24.3132 18.2722 19.0733 19.0974 13.9977H16.9995V13.9977ZM46.073 18.4856C44.4735 17.6629 43.2159 19.0532 42.6329 20.3555C42.7652 19.7761 42.8196 19.0976 42.9268 18.4856H41.3325C40.9427 22.3348 40.3683 25.9485 39.8223 29.5983H41.6263C41.8792 27.4319 41.9883 24.5115 42.5492 22.4391C42.9975 20.7831 44.1706 19.3722 45.8635 20.1419C45.8869 19.5309 46.0243 19.0646 46.073 18.4856V18.4856ZM47.0797 26.9805C46.9134 26.4333 46.8705 25.5301 46.9121 24.8432C47.0052 23.2996 47.447 21.4201 48.1287 20.5692C49.0695 19.3948 50.9267 19.5892 52.4081 20.2487C52.4538 19.6129 52.5542 19.0457 52.6179 18.4323C50.1884 17.927 47.8831 18.2414 46.6607 19.8749C45.4639 21.4739 44.6797 25.149 45.234 27.4614C45.883 30.1673 48.7934 30.3144 51.1495 29.278C51.2538 28.7341 51.309 28.1277 51.4012 27.5684C50.1135 28.42 47.6519 28.8627 47.0797 26.9805V26.9805ZM67.3432 18.5389C65.7487 17.5237 64.4213 19.2272 63.9031 20.2485C64.0507 19.7245 64.0592 19.0227 64.1966 18.4854H62.6025C62.1726 22.3012 61.6546 26.0045 61.0504 29.5981H62.8964C62.908 28.1252 63.1352 27.0357 63.3157 25.5915C63.7014 22.5072 64.268 19.125 67.0918 20.1417C67.1852 19.6201 67.2241 19.0285 67.3432 18.5389ZM20.2718 18.4856C20.2229 18.4945 20.2261 18.57 20.2297 18.6458C19.8323 22.4315 19.2942 26.0385 18.7195 29.5981H20.5234C20.9569 25.7869 21.4534 22.0564 22.0757 18.4854L20.2718 18.4856V18.4856ZM36.13 18.2719C34.8265 18.3999 33.7247 18.8775 32.9416 19.9282C31.9812 21.2166 31.2035 24.0655 31.4314 26.66C31.7565 30.3613 35.3753 30.2283 38.2697 29.3313C38.319 28.6816 38.4425 28.1263 38.5213 27.5147C37.3291 28.0829 35.2588 28.876 34.0322 27.8889C33.1063 27.1432 33.1009 25.2556 33.4029 23.6147C35.3483 23.5359 37.3702 23.5508 39.3182 23.6147C39.4417 22.4518 39.7954 21.1839 39.486 20.0352C39.0781 18.5188 37.6169 18.1259 36.13 18.2719ZM37.85 22.3323H33.6126C33.7468 21.0918 34.6232 19.7282 36.0041 19.661C37.3037 19.5977 38.2342 20.2686 37.85 22.3323V22.3323ZM29.2917 18.4856C27.7649 17.7552 25.9041 18.6271 25.0973 19.4565C25.1002 19.493 25.078 19.4979 25.0543 19.5006C25.068 19.4859 25.0829 19.4712 25.0973 19.4565C25.0971 19.4534 25.0969 19.4504 25.0965 19.4473C25.11 19.0907 25.2085 18.8422 25.2222 18.4856H23.67C23.0231 23.9661 22.256 29.2934 21.4466 34.5669H23.2505C23.5116 32.5131 23.684 30.3464 24.0477 28.4229C24.4597 30.4459 27.1498 30.0595 28.285 29.2778C30.627 27.6647 32.4335 19.9884 29.2917 18.4856V18.4856ZM27.8654 27.5147C26.9002 28.8164 24.5275 28.7969 24.3413 26.6063C24.2603 25.6533 24.539 24.654 24.6772 23.668C24.8164 22.67 24.9169 21.7124 25.0544 20.8364C26.0051 19.3581 28.7986 19.1795 29.0821 21.6378C29.3279 23.772 28.6646 26.4366 27.8654 27.5147V27.5147ZM74.0555 13.6772C73.901 15.4036 73.6942 17.0638 73.4264 18.6458C69.0013 16.8619 66.2876 21.0082 66.3365 26.1257C66.3461 27.1154 66.4798 28.0968 66.9656 28.7969C67.8035 30.003 70.2017 30.292 71.4129 29.2776C71.6471 29.0814 71.8867 28.7241 72.042 28.4764C72.1588 28.2899 72.344 27.8014 72.3777 27.9421C72.3138 28.4841 72.2187 28.9865 72.2101 29.5981H73.8462C74.1618 23.8377 75.1365 18.9177 75.86 13.677H74.0557V13.6772H74.0555ZM70.0282 28.3694C68.8138 28.4026 68.21 27.4454 68.1821 25.8585C68.1337 23.0791 69.0911 19.9913 71.0351 19.7143C71.9402 19.5855 72.5955 19.8535 73.2586 20.1419C72.6497 23.2639 72.8695 28.2918 70.0282 28.3694V28.3694ZM54.4635 18.4856C54.3747 19.1204 54.2384 19.6948 54.1279 20.302C55.1925 19.962 58.5073 18.9198 58.8267 20.7294C58.9328 21.3305 58.7498 21.9693 58.6169 22.4391C55.6196 22.0775 53.1764 22.7117 52.5337 25.4309C52.1033 27.2523 52.5819 29.0446 53.4987 29.545C55.2643 30.5084 57.412 29.4048 58.1554 27.8889C58.0782 28.4136 58.0051 28.944 58.0298 29.5983H59.5819C59.5985 27.7052 59.8149 26.1727 60.0434 24.4692C60.2382 23.0185 60.6049 21.5824 60.5469 20.302C60.4133 17.3698 56.5988 18.407 54.4635 18.4856V18.4856ZM57.4002 27.4612C56.4706 28.6202 53.8609 28.9494 54.1279 26.179C54.3495 23.878 56.317 23.389 58.4488 23.7211C58.2905 24.9799 58.1087 26.5781 57.4002 27.4612V27.4612Z" fill="white"/>
</g>
<defs>
<clipPath id="clip0_1007_280">
<rect width="83" height="46" fill="white"/>
</clipPath>
</defs>
</svg>
